<?xml version="1.0" encoding="UTF-8" standalone="no"?>
<!-- Created with Inkscape (http://www.inkscape.org/) -->

<svg
   width="202.36816mm"
   height="144.12263mm"
   viewBox="0 0 202.36816 144.12263"
   version="1.1"
   id="svg1"
   xml:space="preserve"
   xmlns:xlink="http://www.w3.org/1999/xlink"
   xmlns="http://www.w3.org/2000/svg"
   xmlns:svg="http://www.w3.org/2000/svg"><defs
     id="defs1"><linearGradient
       id="linearGradient5"><stop
         style="stop-color:#24b064;stop-opacity:1;"
         offset="0"
         id="stop5" /><stop
         style="stop-color:#000000;stop-opacity:1;"
         offset="1"
         id="stop6" /></linearGradient><linearGradient
       xlink:href="#linearGradient5"
       id="linearGradient6"
       x1="29.033447"
       y1="234.45375"
       x2="36.290588"
       y2="234.45375"
       gradientUnits="userSpaceOnUse"
       gradientTransform="translate(20.903751,23.010318)" /></defs><g
     id="layer1"
     transform="translate(-4.4866506,-89.821767)"><g
       id="g6"
       transform="translate(-8.9781021,-41.962868)"><path
         d="m 122.00017,240.96369 m 7.97036,0.66097 m -2.38753,-2.13842 c -5.92912,-1.29039 -11.04387,-5.72329 -12.68401,-10.9931 -0.55953,-1.79776 -0.59972,-4.47552 -0.66465,-44.28445 -0.0753,-46.16533 -0.17069,-43.62566 1.76185,-46.9034 2.11854,-3.59323 6.03552,-5.50245 11.32601,-5.52056 4.72043,-0.0162 8.92951,2.05054 12.58393,6.17882 1.92119,2.17029 2.26577,2.40823 4.6258,3.19419 3.11819,1.03846 5.28542,2.46065 7.66292,5.02864 2.38061,2.57135 3.96332,5.78864 4.16189,8.46022 0.24209,3.25698 0.31296,3.3949 2.57347,5.00796 5.61017,4.00334 8.36445,11.68543 6.44427,17.97406 -0.91073,2.98264 -0.84364,3.66699 0.53678,5.47543 2.60177,3.40851 3.59801,6.84629 3.33632,11.51288 -0.19991,3.56487 -0.98137,5.80608 -3.04757,8.74034 -1.48163,2.1041 -1.48527,2.11623 -1.48527,4.94438 0,5.20392 -1.39832,8.66196 -4.94364,12.2256 -2.21692,2.22838 -5.16128,3.96413 -7.82383,4.61226 -2.03628,0.49569 -3.149,1.6162 -4.20166,4.23107 -1.55049,3.85149 -4.50258,6.8855 -8.59581,8.83435 -3.73167,1.7767 -7.41551,2.18478 -11.5668,1.28131 z m 7.96864,-5.13041 c 3.20414,-1.10239 5.9239,-3.298 7.54652,-6.09215 1.46481,-2.5224 1.43109,-2.68619 -0.69077,-3.35504 -1.31822,-0.41554 -1.92336,-0.48272 -2.00988,-0.22316 -0.31262,0.93787 -2.51069,3.64641 -3.76412,4.63828 -1.73467,1.3727 -4.48592,2.21154 -6.34102,1.93335 -1.77255,-0.26581 -4.56282,-1.86643 -5.66786,-3.25132 -0.47728,-0.59816 -1.19015,-1.89622 -1.58414,-2.88458 -0.44556,-1.1177 -0.94399,-1.84085 -1.31852,-1.91298 -2.9909,-0.57599 -3.61607,2.97485 -1.10543,6.27859 1.4502,1.9083 4.84068,4.42691 6.74999,5.01421 2.31809,0.71303 5.87409,0.64995 8.18523,-0.1452 z m -0.14495,-14.70886 c 1.207,-1.15724 2.47662,-2.10407 2.82138,-2.10407 0.34475,0 1.24565,0.45509 2.00199,1.01131 4.90815,3.60949 11.9098,2.82127 16.19044,-1.82267 2.53903,-2.75452 3.67864,-6.80738 3.01706,-10.72969 l -0.374,-2.21733 1.94727,-1.94726 c 2.67185,-2.67186 3.49052,-4.83288 3.29766,-8.70475 -0.14707,-2.95239 -1.05566,-5.69712 -2.24107,-6.7699 -0.57104,-0.51678 -0.69483,-0.48905 -2.08429,0.46693 l -1.47719,1.01633 0.99227,1.83204 c 2.04931,3.78365 1.12664,7.70126 -2.38946,10.14546 -2.49363,1.73343 -2.79296,2.57572 -1.91991,5.40235 1.37373,4.44761 0.27705,7.92492 -3.23476,10.25663 -3.53398,2.34644 -7.91026,1.75324 -10.57384,-1.43325 -1.55589,-1.86134 -2.66886,-2.33418 -3.92838,-1.66896 -1.09171,0.57659 -6.1364,5.64451 -6.6772,6.70796 -0.53253,1.04717 -0.45349,1.66644 0.3102,2.43012 0.95175,0.95175 1.72796,0.61567 4.32183,-1.87125 z m -13.52932,-5.73264 c 0.17691,0 0.82144,-1.09671 1.4323,-2.43714 1.02059,-2.23954 1.22635,-2.47855 2.53772,-2.94774 0.7849,-0.28083 1.96868,-0.59821 2.63063,-0.70529 1.43557,-0.23223 2.91983,-1.31469 2.91983,-2.1294 0,-1.20989 -1.24066,-1.84251 -3.58166,-1.82628 -2.36137,0.0164 -3.9646,0.64483 -5.98766,2.34712 -2.31292,1.94619 -3.44481,6.43498 -1.89616,7.5197 0.40684,0.28496 0.93853,0.44182 1.18152,0.34857 0.243,-0.0933 0.58656,-0.16954 0.76348,-0.16954 z m 26.27046,-7.11091 c 0.42366,-0.29675 0.73314,-0.86006 0.73314,-1.33448 0,-0.87196 -0.40338,-1.32888 -3.43519,-3.89111 -3.0229,-2.5547 -3.88298,-4.63052 -2.6487,-6.3927 0.46503,-0.66392 0.78979,-0.73314 3.44007,-0.73314 3.3542,0 4.06651,-0.38286 3.89865,-2.09554 -0.17003,-1.73483 -0.80902,-1.85262 -10.07886,-1.85804 -7.89289,-0.005 -8.36378,0.0297 -8.98896,0.65488 -0.36285,0.36286 -0.65974,0.95663 -0.65974,1.31948 0,0.36286 0.29689,0.95663 0.65974,1.31948 0.5668,0.5668 1.09957,0.65974 3.7819,0.65974 3.61765,0 3.59758,-0.0165 3.91967,3.21748 0.26475,2.65818 1.367,4.80335 3.48706,6.78643 1.51246,1.41473 3.90975,2.83435 4.81914,2.85378 0.18642,0.004 0.66886,-0.22383 1.07208,-0.50626 z M 122.30912,196.7802 c 0.42214,-0.46646 0.64924,-1.52019 0.83535,-3.87597 0.28823,-3.64861 0.7648,-5.04712 2.32569,-6.82488 1.31827,-1.50143 3.11195,-2.45625 5.13512,-2.73355 1.4022,-0.1922 2.77179,-1.10267 2.77179,-1.84263 0,-0.7566 -0.76423,-1.54879 -1.83509,-1.9022 -3.33572,-1.10089 -9.15862,2.51735 -11.15923,6.93414 -1.60213,3.53704 -1.96021,8.82825 -0.69226,10.22932 0.7542,0.83338 1.87261,0.84012 2.61863,0.0158 z m 32.08739,-12.40334 c 4.91265,-2.18277 7.63382,-8.15974 6.22269,-13.66796 -1.01513,-3.96243 -3.10841,-6.70998 -6.31471,-8.28844 -1.73108,-0.85221 -2.62364,-1.06599 -5.00229,-1.1981 -2.61589,-0.14529 -2.98279,-0.0913 -3.8024,0.55966 -2.01959,1.60397 -0.56848,3.135 3.30859,3.49079 2.84533,0.26111 4.39337,0.90858 5.92994,2.48022 3.81287,3.8999 2.96252,10.37211 -1.6581,12.62021 -0.94888,0.46166 -2.35369,1.00309 -3.1218,1.20317 -1.66901,0.43474 -2.23616,1.25784 -1.69105,2.45422 0.73347,1.6098 2.99745,1.73769 6.12913,0.34623 z m -9.88632,-6.83984 c 0.72906,-0.56412 0.45964,-2.61903 -0.58137,-4.43419 -1.86934,-3.25949 -6.19468,-5.80155 -9.93963,-5.84165 -2.51206,-0.0269 -3.58095,0.60931 -3.58095,2.13142 0,1.32092 0.79341,1.7699 3.52205,1.99309 2.94737,0.24107 4.64352,1.26161 6.28564,3.78195 1.86751,2.86625 2.90926,3.44105 4.29426,2.36938 z m -22.18393,-7.16536 c 0.47086,-0.5203 0.64467,-1.47802 0.82316,-4.53572 0.25916,-4.43973 0.77734,-5.81395 2.92328,-7.75268 1.2337,-1.11457 3.05124,-1.8901 4.4397,-1.89436 0.85726,-0.003 1.804,-0.57218 2.20898,-1.32888 0.80366,-1.50165 -1.25821,-2.86567 -3.80425,-2.5167 -6.03714,0.82749 -10.54027,7.78829 -9.98697,15.43757 0.21081,2.91446 1.92187,4.21977 3.3961,2.59077 z m 29.19367,-14.83197 c 0,-1.41196 -1.39572,-4.25453 -2.93945,-5.98655 -1.96827,-2.20835 -4.6953,-3.7141 -7.61639,-4.20545 -2.36824,-0.39836 -3.26041,-1.13238 -5.01702,-4.12772 -2.00952,-3.42659 -7.78298,-5.3798 -12.24205,-4.14159 -1.50535,0.41802 -3.61632,2.23793 -4.18316,3.6064 -0.34312,0.82836 -0.32191,1.11492 0.13399,1.81072 0.75631,1.15427 1.78987,1.04292 3.63051,-0.39111 1.30352,-1.01556 1.8845,-1.24099 3.49941,-1.3578 3.46475,-0.25062 5.79376,1.41213 7.63225,5.44889 0.51318,1.12678 1.21696,2.20063 1.56395,2.38634 0.347,0.1857 1.72126,0.43505 3.05391,0.5541 3.63407,0.32464 6.2617,1.89526 7.5889,4.53614 1.10656,2.20185 1.51707,2.515 3.29693,2.515 1.36812,0 1.59822,-0.0932 1.59822,-0.64737 z"
         style="display:inline;fill:#000000;fill-opacity:1"
         id="path1" /><path
         d="m 61.327699,275.33001 c 0.15096,-0.3175 0.32468,-5.28476 0.38604,-11.03836 0.10532,-9.87559 0.0747,-10.54448 -0.54745,-11.9509 l -0.65901,-1.4898 1.38035,-0.36166 c 1.93709,-0.50754 4.93043,-1.36142 5.42126,-1.54648 0.29375,-0.11075 0.41234,0.29438 0.41234,1.40873 v 1.5642 l 0.71628,-0.91061 c 1.57696,-2.00478 5.38697,-2.73184 8.0281,-1.53199 3.09255,1.40491 4.63371,4.72618 4.38569,9.4514 -0.22941,4.37087 -1.98261,7.21316 -5.6347,9.13499 -1.12883,0.59402 -1.94777,0.73506 -4.32133,0.74423 l -2.92856,0.0113 0.18047,2.96883 c 0.0993,1.63286 0.28256,3.2286 0.40735,3.5461 0.20825,0.52984 -0.0906,0.57727 -3.6372,0.57727 -3.56473,0 -3.84283,-0.0447 -3.58963,-0.57727 z m 11.48262,-10.08962 c 2.04875,-2.04876 2.00618,-10.14608 -0.0619,-11.77283 -0.99941,-0.78614 -2.94205,-0.8536 -3.96418,-0.13767 -0.70982,0.49718 -0.73314,0.69598 -0.73314,6.25114 0,6.47921 -0.031,6.4017 2.57149,6.42012 1.05394,0.007 1.61441,-0.18744 2.18773,-0.76076 z m 16.80264,3.38038 c -4.3363,-1.25676 -6.92247,-5.9767 -6.09388,-11.12176 0.85386,-5.30201 4.5721,-8.65356 9.57844,-8.63383 4.22556,0.0166 6.903471,2.76852 7.481691,7.68831 l 0.21987,1.87068 h -5.653221 -5.6532 v 1.16769 c 0,4.18153 4.70067,6.36023 9.20183,4.26491 0.97887,-0.45567 1.842771,-0.76549 1.919771,-0.68849 0.27899,0.27899 -1.193781,2.70301 -2.269901,3.73601 -0.60622,0.58193 -1.7512,1.28703 -2.54441,1.56689 -1.56907,0.5536 -4.54476,0.62554 -6.18699,0.14959 z m 3.24734,-12.50569 h 2.32409 l -0.1644,-1.71085 c -0.255,-2.65392 -2.09994,-3.717 -3.9395,-2.27001 -1.25341,0.98593 -2.17674,4.6073 -1.06605,4.18108 0.28698,-0.11012 1.56762,-0.20022 2.84586,-0.20022 z m 14.856311,12.21346 c -1.73131,-0.78586 -2.92404,-2.02726 -3.81118,-3.96671 -1.02696,-2.2451 -1.00829,-7.4614 0.0348,-9.73117 1.05428,-2.29407 3.14041,-4.32167 5.26382,-5.11614 1.88744,-0.70618 4.466,-0.85425 5.83204,-0.33488 l 0.84615,0.32171 -0.007,-1.88859 c -0.004,-1.16882 -0.25815,-2.44161 -0.6656,-3.33966 -0.3621,-0.79808 -0.61427,-1.49515 -0.56039,-1.54903 0.0872,-0.0872 7.06733,-1.78302 7.3392,-1.78302 0.0604,0 0.0291,4.19348 -0.0695,9.31883 -0.16517,8.58456 0.15477,16.29634 0.73901,17.81299 0.20277,0.52637 -0.0716,0.57727 -3.11162,0.57727 h -3.33399 l -0.002,-1.40195 -0.002,-1.40194 -1.13865,1.23973 c -0.62625,0.68185 -1.52585,1.38694 -1.99911,1.56688 -1.36295,0.51819 -3.82736,0.36892 -5.35462,-0.32432 z m 7.19243,-3.48038 0.97323,-0.50327 v -5.61432 c 0,-5.52105 -0.0134,-5.62776 -0.80968,-6.42399 -1.73685,-1.73685 -4.34027,-0.69806 -5.09901,2.03455 -0.46282,1.66687 -0.45827,6.03501 0.008,7.88763 0.69099,2.74417 2.66086,3.79139 4.92723,2.6194 z m 24.72935,3.52112 c -1.60084,-0.85854 -2.38277,-2.05224 -2.55496,-3.90041 -0.11963,-1.28404 7.8e-4,-1.80862 0.62334,-2.71567 1.13181,-1.64903 2.0946,-2.24463 5.91153,-3.65699 l 3.43669,-1.27165 -0.002,-1.97155 c -0.002,-2.37415 -0.68048,-3.35611 -2.31794,-3.35611 -1.19723,0 -1.60759,0.3823 -1.94746,1.81428 -0.52331,2.20494 -2.97932,3.28395 -4.25821,1.87078 -0.74378,-0.82186 -0.69159,-2.75118 0.1017,-3.75968 1.52331,-1.93658 7.17545,-3.15265 10.48981,-2.2569 1.99609,0.53946 3.54842,2.0139 3.99735,3.7968 0.20301,0.8062 0.37264,4.10915 0.37697,7.33988 0.004,3.23073 0.13714,6.43071 0.29513,7.11107 l 0.28726,1.23701 h -3.09902 -3.09903 v -1.21925 -1.21926 l -1.07208,1.03409 c -0.58964,0.56875 -1.48995,1.19163 -2.00069,1.38419 -1.43996,0.54288 -3.90174,0.41874 -5.16851,-0.26063 z m 6.97829,-3.2339 c 0.49793,-0.45062 0.60325,-1.05608 0.60325,-3.46806 v -2.92214 l -1.23701,0.51311 c -2.07969,0.86265 -2.88637,1.90814 -2.88637,3.74086 0,0.87513 0.20373,1.83663 0.45273,2.13666 0.58279,0.70221 2.29126,0.70197 3.0674,-4.3e-4 z m 14.9526,3.37897 c -1.21316,-0.53919 -2.31362,-1.70099 -2.78192,-2.93698 -0.20291,-0.53553 -0.35185,-3.5028 -0.35185,-7.00974 v -6.08112 h -1.35516 -1.35517 l 4.03798,-3.87598 c 2.22089,-2.13178 4.24091,-3.92397 4.48893,-3.98263 0.34891,-0.0825 0.45096,0.42135 0.45096,2.22663 v 2.33327 h 2.64524 2.64525 l -0.19192,0.90715 c -0.10555,0.49893 -0.25965,1.24113 -0.34244,1.64935 -0.13881,0.68444 -0.32974,0.74221 -2.45333,0.74221 h -2.3028 v 5.44285 c 0,5.09723 0.0442,5.48705 0.69586,6.13873 0.59491,0.5949 0.9955,0.67679 2.76092,0.56437 l 2.06505,-0.13149 -0.27547,0.96051 c -0.44074,1.53676 -1.25631,2.54938 -2.45753,3.05128 -1.39705,0.58372 -4.61089,0.58459 -5.9226,0.002 z m 43.93958,-0.0101 c -2.1912,-0.78162 -3.66316,-1.99359 -4.67357,-3.84809 -1.2709,-2.3326 -1.56731,-6.50289 -0.65699,-9.24359 0.8297,-2.498 3.67245,-5.3118 6.09254,-6.03049 3.56241,-1.05792 6.91813,-0.54363 8.54533,1.30965 1.83495,2.0899 1.06063,4.77005 -1.37481,4.75858 -1.49,-0.007 -1.83783,-0.30841 -2.50021,-2.16635 -0.50347,-1.41219 -0.7081,-1.63495 -1.58125,-1.72134 -2.70624,-0.26774 -4.60703,4.92706 -3.39714,9.28427 0.51628,1.8593 2.15338,3.48439 3.90528,3.87661 1.65079,0.36958 2.93526,0.16895 4.72786,-0.73848 1.07809,-0.54574 1.23702,-0.55965 1.23702,-0.1083 0,1.59314 -2.46419,4.18084 -4.5267,4.75361 -1.69495,0.47069 -4.2821,0.41443 -5.79736,-0.12608 z m -78.87634,-0.43136 c 0.14574,-0.3175 0.32258,-3.71304 0.39297,-7.54564 0.1207,-6.57132 0.0884,-7.0459 -0.56627,-8.32922 -0.38184,-0.74847 -0.63696,-1.36085 -0.56694,-1.36085 0.07,0 1.78012,-0.43364 3.80021,-0.96363 2.02009,-0.52999 3.67602,-0.93821 3.67985,-0.90714 0.004,0.0311 0.0515,4.13862 0.10594,9.12791 0.0544,4.98928 0.21707,9.40542 0.36139,9.81363 l 0.2624,0.74221 h -3.86727 c -3.56415,0 -3.8465,-0.0453 -3.60228,-0.57727 z m 46.48488,-0.16494 c 0.13449,-0.40821 0.31519,-3.73007 0.40154,-7.38191 0.14529,-6.14435 0.10722,-6.75225 -0.51033,-8.14832 l -0.66733,-1.50862 1.70621,-0.48587 c 0.93841,-0.26723 2.34637,-0.65374 3.12879,-0.85891 0.78242,-0.20517 1.63595,-0.45492 1.89675,-0.55499 0.38771,-0.14878 0.47934,0.32072 0.50253,2.57476 0.0186,1.80662 0.11503,2.47176 0.27985,1.92991 0.86736,-2.85141 2.36787,-4.32319 4.62908,-4.54047 l 1.66012,-0.15951 v 2.14489 c 0,1.17969 -0.0871,2.5802 -0.19348,3.11225 -0.19176,0.95883 -0.21056,0.96613 -2.13084,0.82722 -1.81768,-0.13147 -2.00146,-0.076 -2.97466,0.89716 l -1.03729,1.03728 0.15929,5.18646 c 0.0876,2.85256 0.26883,5.52046 0.40271,5.92867 0.24314,0.74136 0.23898,0.74221 -3.62703,0.74221 -3.86635,0 -3.8702,-7.9e-4 -3.62591,-0.74221 z m 16.23954,-0.65974 c 0.13822,-0.77107 0.2513,-4.22233 0.2513,-7.66948 0,-5.32731 -0.0868,-6.43639 -0.5787,-7.39315 -0.31829,-0.6191 -0.51541,-1.18892 -0.43805,-1.26628 0.0774,-0.0774 1.77671,-0.5546 3.77635,-1.06053 l 3.6357,-0.91987 0.10674,9.27836 c 0.0587,5.1031 0.23139,9.53813 0.38375,9.85563 0.25555,0.53255 -0.0199,0.57727 -3.55569,0.57727 h -3.8327 z m -61.01378,-19.89409 c -2.79667,-1.51769 -1.6064,-5.75524 1.61568,-5.7521 1.80993,0.002 3.3209,1.02109 3.58277,2.41699 0.52641,2.80597 -2.54384,4.77572 -5.19845,3.33511 z m 63.07937,0.29789 c -1.26431,-0.50472 -1.97917,-1.555 -1.96873,-2.89249 0.006,-0.73944 0.19132,-1.57997 0.41234,-1.86783 1.16674,-1.51964 3.62546,-1.72784 5.15965,-0.4369 1.33936,1.127 1.44663,3.24361 0.22267,4.39346 -0.79331,0.74527 -2.87628,1.18287 -3.82593,0.80376 z"
         style="fill:#000000;fill-opacity:1"
         id="path1-2" /><path
         d="m 90.184458,239.30283 c -4.238867,-0.4438 -7.85804,-2.23286 -10.785698,-5.33168 -1.810886,-1.91675 -3.11834,-4.02158 -3.733688,-6.01076 -0.59139,-1.91173 -1.157546,-2.39938 -3.646062,-3.14049 -7.269994,-2.1651 -12.125638,-9.40408 -11.414691,-17.01745 0.18515,-1.98273 0.142353,-2.1481 -0.947035,-3.65932 -3.261301,-4.52412 -3.812273,-5.92536 -4.032958,-10.25668 -0.254245,-4.99001 0.732264,-8.56384 3.229802,-11.70061 1.448903,-1.81975 1.563584,-2.52373 0.813773,-4.99541 -0.727658,-2.39867 -0.641616,-7.22562 0.175984,-9.8727 0.930925,-3.01399 3.01008,-5.94396 5.835435,-8.22338 2.009848,-1.62149 2.407072,-2.1094 2.558284,-3.14234 0.739271,-5.05 1.602928,-7.42504 3.5661,-9.80671 1.4836,-1.79986 3.970711,-3.65119 5.753753,-4.28292 3.54347,-1.25543 4.033147,-1.56284 5.07452,-3.18568 4.114481,-6.41187 12.670307,-8.64717 19.922613,-5.205 3.45075,1.63784 5.9918,4.37647 6.78135,7.30866 0.53436,1.98443 0.53574,84.42468 0.001,86.35536 -0.68678,2.48169 -2.35421,5.24187 -4.37771,7.24663 -3.91026,3.87404 -8.899717,5.53564 -14.775222,4.92048 z m 7.094593,-5.26906 c 2.226899,-0.83319 4.235989,-2.32072 5.665149,-4.19448 1.30458,-1.71042 1.73029,-3.08809 1.9843,-6.4216 0.18978,-2.49052 0.17592,-2.55623 -0.48706,-2.30909 -1.31842,0.49149 -2.43313,1.79209 -3.41244,3.98152 -1.822239,4.07398 -4.596,6.01591 -8.535451,5.97572 -2.501477,-0.0255 -3.697506,-0.40922 -5.707672,-1.83112 -0.975154,-0.68977 -1.72475,-1.59257 -2.248376,-2.7079 -0.729806,-1.5545 -0.870642,-1.67411 -1.985979,-1.68667 -0.685592,-0.008 -1.517376,0.24309 -1.939359,0.58479 l -0.738891,0.59832 0.679016,1.53503 c 0.373458,0.84426 1.391672,2.29691 2.262697,3.22811 3.641992,3.89358 9.326079,5.16973 14.464066,3.24737 z M 82.474028,219.45286 c 2.845123,-1.2988 4.3904,-1.49531 5.73121,-0.72883 2.392842,1.36787 5.607792,-0.61724 5.607792,-3.4626 0,-1.89249 -2.018219,-3.62961 -4.216964,-3.62961 -1.081426,0 -1.547573,0.22932 -2.65934,1.30825 -3.576079,3.47047 -10.110911,5.06702 -13.675924,3.34123 -2.388485,-1.15624 -3.629468,-2.89291 -4.332554,-6.0631 -0.204931,-0.92402 -0.97608,-1.39767 -2.906777,-1.78538 l -0.907142,-0.18217 v 2.12062 c 0,2.69009 1.083159,4.99355 3.243908,6.89852 4.334411,3.82132 8.95999,4.53669 14.115791,2.18307 z m 22.158742,-4.91818 c 0.2755,-0.2755 0.39584,-2.03054 0.39584,-5.77273 v -5.37688 h -5.464539 c -3.136022,0 -5.736427,0.1455 -6.102597,0.34147 -0.862014,0.46134 -0.830912,2.0207 0.05632,2.82363 0.59339,0.53702 1.217038,0.6284 4.288312,0.6284 h 3.593934 v 3.23792 c 0,1.78086 0.15367,3.52505 0.34148,3.87598 0.39143,0.73139 2.24665,0.88681 2.89125,0.24221 z m -22.994343,-8.13665 c 0.303287,-0.37454 0.654196,-1.24279 0.779797,-1.92944 0.614574,-3.35983 5.299904,-8.0108 8.069988,-8.0108 1.171045,0 2.292552,-0.72826 2.814116,-1.82737 0.651286,-1.37249 0.644483,-2.24424 -0.02858,-3.66263 -0.706908,-1.4897 -2.137958,-2.22299 -3.881807,-1.98909 -1.625818,0.21807 -2.289643,0.95761 -2.974641,3.31392 -0.856275,2.94548 -4.837434,6.76638 -7.72655,7.41552 -1.973648,0.44345 -2.93932,1.18588 -3.315753,2.5492 -0.761068,2.75636 1.399063,5.29469 4.240605,4.98305 0.946424,-0.10379 1.668142,-0.40434 2.02283,-0.84236 z m -10.963542,-1.72645 c 1.133026,-0.39497 1.696941,-1.65635 1.150999,-2.57458 -0.172077,-0.28942 -1.371173,-1.04576 -2.664658,-1.68076 -1.293485,-0.635 -2.674764,-1.45143 -3.06951,-1.81429 -2.360799,-2.17009 -2.884003,-6.71505 -1.173947,-10.19784 l 0.957984,-1.95108 -1.235942,-1.13266 -1.235944,-1.13265 -0.935116,0.89589 c -2.158742,2.06821 -3.07004,6.32216 -2.173131,10.1442 1.138271,4.85058 3.660315,7.77312 8.06601,9.34688 0.66327,0.23692 1.220905,0.43728 1.239188,0.44525 0.01828,0.008 0.501614,-0.1488 1.074067,-0.34836 z m 34.094715,-8.29625 c 0.67276,-1.17782 0.57887,-9.0386 -0.12313,-10.30845 -0.30089,-0.54428 -3.44102,-3.88422 -6.978052,-7.42207 -6.079317,-6.08074 -6.459926,-6.53502 -6.960391,-8.30759 -0.341732,-1.21037 -0.836505,-2.11667 -1.395653,-2.55649 -2.652499,-2.08646 -6.739827,1.01062 -5.739608,4.34905 0.439505,1.46694 1.732209,2.40283 3.780155,2.73677 1.200681,0.19579 2.019131,0.88663 7.529016,6.35519 3.95796,3.92826 6.306133,6.51195 6.527233,7.18191 0.18994,0.57552 0.3027,2.52454 0.25058,4.33116 -0.10602,3.67471 0.17641,4.38272 1.7483,4.38272 0.62681,0 1.07814,-0.24602 1.36155,-0.7422 z M 75.774326,184.53309 c 0.915855,-0.48207 1.203951,-0.92001 1.210276,-1.83977 0.0064,-0.93731 -1.077529,-1.6445 -2.96378,-1.93356 -2.011569,-0.30827 -2.959613,-0.83499 -4.427623,-2.4599 -1.662594,-1.8403 -2.271137,-3.37813 -2.278395,-5.75766 -0.0073,-2.3996 0.834159,-4.43725 2.555354,-6.18783 2.399962,-2.44094 4.572248,-3.04209 8.680519,-2.40218 2.610191,0.40656 3.512504,-0.71369 2.061075,-2.55888 -1.430129,-1.81811 -6.900746,-1.92473 -10.280785,-0.20037 -5.550888,2.83186 -8.388792,10.69441 -5.894928,16.33221 2.145561,4.8504 8.258798,8.62885 11.338287,7.00794 z M 105.14664,170.2853 c -0.0537,-11.08169 0.02,-10.74816 -2.93542,-13.27309 -1.92026,-1.64053 -2.790398,-2.9182 -2.790398,-4.09729 0,-1.74835 -1.880212,-3.62857 -3.628571,-3.62857 -1.781573,0 -3.954404,2.14614 -3.957209,3.90859 -0.002,1.27129 0.970467,2.93434 1.918665,3.2811 0.486199,0.1778 1.518775,0.4955 2.294613,0.70601 1.763179,0.47839 4.77259,3.3794 5.3637,5.17047 0.30436,0.92223 0.33715,2.23597 0.12624,5.058 -0.46563,6.23018 -0.38461,8.25211 0.39069,9.74987 0.58186,1.12405 2.41928,2.8043 3.06598,2.80372 0.10924,-1e-4 0.17751,-4.35557 0.15171,-9.67881 z M 76.686757,155.04241 c 0.126396,-0.0781 0.329023,-0.53733 0.450283,-1.02046 0.702233,-2.79792 3.802653,-5.19494 6.532983,-5.05084 2.666568,0.14075 3.223235,0.0226 3.507003,-0.74453 0.718949,-1.94351 -0.629709,-2.94781 -3.944472,-2.93734 -1.874625,0.006 -2.746089,0.1871 -4.110243,0.85452 -3.057845,1.49607 -5.421695,4.69659 -5.961337,8.07132 l -0.229796,1.43707 1.762884,-0.23385 c 0.969586,-0.12862 1.866299,-0.29777 1.992695,-0.37589 z m 28.154203,-11.85865 c -0.0666,-3.86492 -5.132456,-7.00579 -10.817595,-6.70694 -3.739971,0.1966 -6.636723,1.99337 -6.887942,4.27239 -0.0702,0.63683 0.158908,0.8543 1.335862,1.26799 1.415456,0.49751 1.428746,0.49486 3.675685,-0.73395 3.739861,-2.04525 6.742405,-1.45996 9.11898,1.77759 1.10585,1.50647 1.30445,1.63401 2.40164,1.54234 1.16327,-0.0972 1.19546,-0.13614 1.17337,-1.41942 z"
         style="fill:#24b064;fill-opacity:1"
         id="path1-9" /><path
         d="m 14.613331,260.93836 c 0.10452,-6.78893 0.06006,-7.53718 -0.517114,-8.70376 l -0.631464,-1.2763 3.21688,-0.86262 c 1.769283,-0.47445 3.337958,-0.86272 3.485944,-0.86283 0.147986,-1.1e-4 0.217628,0.74209 0.154761,1.64935 -0.06287,0.90726 -0.02326,1.64956 0.08802,1.64956 0.111277,0 0.830701,-0.65348 1.598719,-1.45217 1.612974,-1.67739 3.5465,-2.35569 5.824803,-2.04342 1.817646,0.24914 2.809819,0.8794 3.560391,2.26168 0.48504,0.89327 0.613063,2.28892 0.778882,8.49105 0.10914,4.08214 0.312234,7.68185 0.451321,7.99935 0.23171,0.52894 -0.03364,0.57727 -3.168944,0.57727 h -3.421828 l 0.125492,-6.94215 c 0.113594,-6.28394 0.07016,-7.0033 -0.458096,-7.58702 -0.725251,-0.80139 -2.738141,-0.85942 -4.167737,-0.12014 l -1.014678,0.52471 0.162252,6.48503 c 0.08924,3.56676 0.272214,6.7448 0.406611,7.0623 0.22365,0.52835 -0.04518,0.57728 -3.172102,0.57742 l -3.416462,1.4e-4 z m 22.341602,6.84989 c 0.143168,-0.3175 0.321805,-3.8801 0.396973,-7.91688 l 0.136668,-7.33961 h -1.208441 -1.20844 l 1.17663,-1.43593 c 0.850983,-1.03851 1.17663,-1.75525 1.17663,-2.58973 0,-4.25163 3.293987,-7.18057 8.081818,-7.18619 2.735641,-0.003 4.399344,0.69178 5.078624,2.12155 0.394872,0.83114 0.394926,1.08737 3.78e-4,1.7817 -0.692543,1.21875 -1.424396,1.5653 -2.505101,1.18625 -0.612688,-0.21489 -1.041465,-0.6836 -1.271159,-1.38952 -0.469072,-1.44162 -0.941186,-1.84537 -1.881777,-1.60929 -1.066627,0.2677 -1.565121,1.49672 -1.565121,3.85876 v 1.96369 h 1.985506 c 1.943618,0 1.981893,0.0174 1.814286,0.82468 l -0.34244,1.64935 c -0.155493,0.74893 -0.3251,0.82468 -1.846589,0.82468 h -1.67537 l 0.153925,7.17467 c 0.08466,3.94607 0.26495,7.50867 0.400647,7.91688 0.246077,0.74027 0.237035,0.74221 -3.455615,0.74221 -3.405286,0 -3.681452,-0.0463 -3.442032,-0.57727 z"
         style="fill:#24b064;fill-opacity:1"
         id="path1-1" /><path
         d="m 49.937198,257.46407 v -1.97922 h 3.628572 3.628571 v 1.97922 1.97922 H 53.56577 49.937198 Z"
         style="fill:url(#linearGradient6)"
         id="path1-8" /></g></g></svg>
